# xmcd CD database file
#
# Track frame offsets:
#	150
#	10362
#	23895
#	61950
#	76807
#	95680
#	118517
#	141115
#	153687
#
# Disc length: 2408 seconds
#
# Revision: 3
# Processed by: cddbd v1.5.1PL0 Copyright (c) Steve Scherf et al.
# Submitted via: CDex 1.51
#
DISCID=6f096609
DTITLE=布袋寅泰 - HOTEI ROCK THE FUTURE 2005 MONSTER DRIVE PARTY 05.07.30 ZEPP NAGOYA
DYEAR=2005
DGENRE=Rock
TTITLE0=MC
TTITLE1=Finger Skippin' Jive
TTITLE2=BATTLE WITHOUT HONOR OR HUMANITY
TTITLE3=MC
TTITLE4=C'MON EVERYBODY
TTITLE5=RUSSIAN ROULETTE
TTITLE6=BEAT SWEET
TTITLE7=MC
TTITLE8=SURRENDER (Unplugged)
EXTD=YEAR: 2005
EXTT0=
EXTT1=
EXTT2=
EXTT3=
EXTT4=
EXTT5=
EXTT6=
EXTT7=
EXTT8=
PLAYORDER=
